<svg width="316" height="75" viewBox="0 0 316 75" fill="none" xmlns="http://www.w3.org/2000/svg">
<circle cx="37.5" cy="37.5" r="37.5" fill="#FD6702"/>
<path d="M25 59L45 16" stroke="white" stroke-width="8" stroke-linecap="round"/>
<path d="M38 40H49" stroke="white" stroke-width="8" stroke-linecap="round"/>
<path d="M84.72 54L98.16 20.112H104.976L118.272 54H110.304L100.128 25.872H102.864L92.544 54H84.72ZM92.352 47.856V41.712H110.832V47.856H92.352ZM131.669 54.528C129.269 54.528 127.093 54 125.141 52.944C123.189 51.888 121.653 50.432 120.533 48.576C119.413 46.72 118.853 44.64 118.853 42.336C118.853 40 119.413 37.92 120.533 36.096C121.685 34.24 123.237 32.784 125.189 31.728C127.141 30.672 129.333 30.144 131.765 30.144C133.589 30.144 135.253 30.464 136.757 31.104C138.293 31.712 139.653 32.64 140.837 33.888L136.133 38.592C135.589 37.984 134.949 37.536 134.213 37.248C133.509 36.96 132.693 36.816 131.765 36.816C130.709 36.816 129.765 37.056 128.933 37.536C128.133 37.984 127.493 38.624 127.013 39.456C126.565 40.256 126.341 41.2 126.341 42.288C126.341 43.376 126.565 44.336 127.013 45.168C127.493 46 128.149 46.656 128.981 47.136C129.813 47.616 130.741 47.856 131.765 47.856C132.725 47.856 133.573 47.696 134.309 47.376C135.077 47.024 135.733 46.544 136.277 45.936L140.933 50.64C139.717 51.92 138.341 52.896 136.805 53.568C135.269 54.208 133.557 54.528 131.669 54.528ZM159.609 54V40.704C159.609 39.488 159.225 38.512 158.457 37.776C157.721 37.008 156.777 36.624 155.625 36.624C154.825 36.624 154.121 36.8 153.513 37.152C152.905 37.472 152.425 37.952 152.073 38.592C151.721 39.2 151.545 39.904 151.545 40.704L148.713 39.312C148.713 37.488 149.097 35.888 149.865 34.512C150.633 33.136 151.705 32.08 153.081 31.344C154.457 30.576 156.041 30.192 157.833 30.192C159.657 30.192 161.257 30.576 162.633 31.344C164.009 32.08 165.065 33.12 165.801 34.464C166.569 35.776 166.953 37.312 166.953 39.072V54H159.609ZM144.201 54V19.152H151.545V54H144.201ZM178.87 54.096L169.27 30.672H177.19L183.286 49.248H180.358L186.598 30.672H194.518L184.534 54.096H178.87ZM172.87 63.84L179.878 48.72L184.534 54.096L180.406 63.84H172.87ZM196.748 54V19.152H204.092V54H196.748ZM220.496 54.528C218.096 54.528 215.92 54 213.968 52.944C212.048 51.856 210.528 50.384 209.408 48.528C208.288 46.672 207.728 44.592 207.728 42.288C207.728 39.984 208.288 37.92 209.408 36.096C210.528 34.272 212.048 32.832 213.968 31.776C215.888 30.688 218.064 30.144 220.496 30.144C222.928 30.144 225.104 30.672 227.024 31.728C228.944 32.784 230.464 34.24 231.584 36.096C232.704 37.92 233.264 39.984 233.264 42.288C233.264 44.592 232.704 46.672 231.584 48.528C230.464 50.384 228.944 51.856 227.024 52.944C225.104 54 222.928 54.528 220.496 54.528ZM220.496 47.856C221.552 47.856 222.48 47.632 223.28 47.184C224.08 46.704 224.688 46.048 225.104 45.216C225.552 44.352 225.776 43.376 225.776 42.288C225.776 41.2 225.552 40.256 225.104 39.456C224.656 38.624 224.032 37.984 223.232 37.536C222.464 37.056 221.552 36.816 220.496 36.816C219.472 36.816 218.56 37.056 217.76 37.536C216.96 37.984 216.336 38.624 215.888 39.456C215.44 40.288 215.216 41.248 215.216 42.336C215.216 43.392 215.44 44.352 215.888 45.216C216.336 46.048 216.96 46.704 217.76 47.184C218.56 47.632 219.472 47.856 220.496 47.856Z" fill="black"/>
<path d="M241.024 41.664V35.808H248.32C249.248 35.808 250.096 35.616 250.864 35.232C251.632 34.848 252.24 34.288 252.688 33.552C253.136 32.816 253.36 31.92 253.36 30.864C253.36 29.84 253.136 28.96 252.688 28.224C252.24 27.488 251.632 26.928 250.864 26.544C250.096 26.16 249.248 25.968 248.32 25.968H241.024V20.112H249.424C251.568 20.112 253.504 20.544 255.232 21.408C256.96 22.272 258.32 23.52 259.312 25.152C260.336 26.752 260.848 28.656 260.848 30.864C260.848 33.072 260.336 34.992 259.312 36.624C258.32 38.224 256.96 39.472 255.232 40.368C253.504 41.232 251.568 41.664 249.424 41.664H241.024ZM235.264 54V20.112H242.8V54H235.264ZM273.492 54.48C271.348 54.48 269.428 53.952 267.732 52.896C266.068 51.84 264.74 50.4 263.748 48.576C262.788 46.752 262.308 44.672 262.308 42.336C262.308 40 262.788 37.92 263.748 36.096C264.74 34.272 266.068 32.832 267.732 31.776C269.428 30.72 271.348 30.192 273.492 30.192C275.06 30.192 276.468 30.496 277.716 31.104C278.996 31.712 280.036 32.56 280.836 33.648C281.636 34.704 282.084 35.92 282.18 37.296V47.376C282.084 48.752 281.636 49.984 280.836 51.072C280.068 52.128 279.044 52.96 277.764 53.568C276.484 54.176 275.06 54.48 273.492 54.48ZM274.98 47.856C276.548 47.856 277.812 47.344 278.772 46.32C279.732 45.264 280.212 43.936 280.212 42.336C280.212 41.248 279.988 40.288 279.54 39.456C279.124 38.624 278.516 37.984 277.716 37.536C276.948 37.056 276.052 36.816 275.028 36.816C274.004 36.816 273.092 37.056 272.292 37.536C271.524 37.984 270.9 38.624 270.42 39.456C269.972 40.288 269.748 41.248 269.748 42.336C269.748 43.392 269.972 44.336 270.42 45.168C270.868 46 271.492 46.656 272.292 47.136C273.092 47.616 273.988 47.856 274.98 47.856ZM279.924 54V47.712L281.028 42.048L279.924 36.384V30.672H287.124V54H279.924ZM299.495 54.096L289.895 30.672H297.815L303.911 49.248H300.983L307.223 30.672H315.143L305.159 54.096H299.495ZM293.495 63.84L300.503 48.72L305.159 54.096L301.031 63.84H293.495Z" fill="#FA6602"/>
</svg>
